<?xml version="1.0" encoding="utf-8"?>
<!-- Generator: Adobe Illustrator 27.4.0, SVG Export Plug-In . SVG Version: 6.00 Build 0)  -->
<svg version="1.1" id="Layer_1" xmlns="http://www.w3.org/2000/svg" xmlns:xlink="http://www.w3.org/1999/xlink" x="0px" y="0px"
	 viewBox="0 0 60 88.2" style="enable-background:new 0 0 60 88.2;" xml:space="preserve">
<style type="text/css">
	.st0{fill:url(#);}
	.st1{fill:#939598;}
	.st2{fill:#F39A2A;}
	.st3{fill:#3CADB9;}
	.st4{fill:#004C5D;}
</style>
<g>
	<polygon class="st3" points="34.6,37.3 34.6,12.5 38.3,12.5 38.3,29.2 42.9,25 46.9,28.1 46.9,8.2 50.6,8.2 50.6,35.6 43.1,29.8 	
		"/>
	<g>
		<path class="st3" d="M9.8,21.3c-1.9,0-3.6-0.2-5.1-0.7c-2.6-0.9-4.2-2.5-4.4-4.6c-0.3-3.4,3.5-6.1,6.3-6.7L49.5,0l0.8,3.6
			L7.4,12.8c-1.6,0.4-3.5,1.9-3.4,2.8c0,0.6,1,1.1,1.9,1.4c1.2,0.4,2.5,0.6,4.1,0.5c1.6,0,3.4-0.2,5.2-0.6l22.3-5l0.8,3.6l-22.3,5
			c-2.1,0.5-4.1,0.7-6,0.7H9.8z"/>
	</g>
	<polygon class="st3" points="59.7,76.2 56,76.2 56.3,10.5 47.4,12.2 46.7,8.6 60,6.1 	"/>
	<rect x="13.6" y="58.6" class="st3" width="3.7" height="22.2"/>
	<g>
		<path class="st3" d="M15.4,59.7c-1,0-1.8-0.8-1.8-1.8V44.3c0-1,0.8-1.8,1.8-1.8s1.8,0.8,1.8,1.8v13.6
			C17.3,58.9,16.4,59.7,15.4,59.7"/>
		<path class="st3" d="M15.4,39.9c-1,0-1.8-0.8-1.8-1.8v-0.2c0-1,0.8-1.8,1.8-1.8s1.8,0.8,1.8,1.8v0.2
			C17.3,39.1,16.4,39.9,15.4,39.9"/>
		<path class="st3" d="M15.4,34.1c-1,0-1.8-0.8-1.8-1.8V19.7c0-1,0.8-1.8,1.8-1.8s1.8,0.8,1.8,1.8v12.6
			C17.3,33.3,16.4,34.1,15.4,34.1"/>
		<path class="st3" d="M12,88.2c-6.7,0-11-3.2-11.2-3.4C0.3,84.5,0,83.9,0,83.4v-66c0-1,0.8-1.8,1.8-1.8c1,0,1.8,0.8,1.8,1.8v65
			c1.7,1,6.3,3.1,12.5,1.6c8.6-2.1,40.8-11.2,41.1-11.3c1-0.3,2,0.3,2.3,1.3c0.3,1-0.3,2-1.3,2.3c-0.3,0.1-32.6,9.3-41.3,11.4
			C15.2,88,13.5,88.2,12,88.2"/>
	</g>
</g>
</svg>
