<?xml version="1.0" encoding="utf-8"?>
<!-- Generator: Adobe Illustrator 27.4.0, SVG Export Plug-In . SVG Version: 6.00 Build 0)  -->
<svg version="1.1" id="Layer_1" xmlns="http://www.w3.org/2000/svg" xmlns:xlink="http://www.w3.org/1999/xlink" x="0px" y="0px"
	 viewBox="0 0 107.9 93.2" style="enable-background:new 0 0 107.9 93.2;" xml:space="preserve">
<style type="text/css">
	.st0{fill:url(#);}
	.st1{fill:#939598;}
	.st2{fill:#F39A2A;}
	.st3{fill:#3CADB9;}
	.st4{fill:#004C5D;}
</style>
<g>
	<polygon class="st4" points="0,22.3 2.6,30.6 6.1,29.6 4.6,24.7 72.4,3.8 71.3,0.3 	"/>
	<g>
		<path class="st4" d="M8.6,45.6c-0.8,0-1.5-0.5-1.7-1.3c-0.8-2.5-1.7-5.4-2.5-8c-0.7-2.2-1.3-4.2-1.7-5.6c-0.3-1,0.2-2,1.2-2.3
			c1-0.3,2,0.2,2.3,1.2c0.4,1.5,1.1,3.4,1.7,5.6c0.8,2.6,1.7,5.5,2.5,8c0.3,1-0.2,2-1.2,2.3C8.9,45.6,8.7,45.6,8.6,45.6"/>
		<path class="st4" d="M10.6,52.2c-0.8,0-1.5-0.5-1.7-1.2c-0.1-0.1-0.1-0.3-0.2-0.4c-0.3-1,0.2-2,1.2-2.3c0.9-0.3,1.9,0.2,2.3,1.1
			c0.1,0.1,0.1,0.3,0.2,0.4c0.3,1-0.2,2-1.2,2.3C10.9,52.2,10.8,52.2,10.6,52.2"/>
		<path class="st4" d="M23.2,93.2c-0.3,0-0.6-0.1-0.9-0.2c-0.4-0.2-0.7-0.6-0.9-1.1c-0.1-0.2-5.8-19.3-10.7-35.3
			c-0.3-1,0.2-2,1.2-2.3c1-0.3,2,0.2,2.3,1.2c4.1,13.2,8.7,28.5,10.2,33.6l5.1-1.6c1-0.3,2,0.2,2.3,1.2c0.3,1-0.2,2-1.2,2.3
			l-6.9,2.1C23.5,93.2,23.3,93.2,23.2,93.2"/>
	</g>
	<polygon class="st4" points="89.6,20.1 103.4,64.8 30.3,87.3 31.4,90.8 107.9,67.2 93.1,19 	"/>
	<path class="st4" d="M76.3,8.6l7.9,5.5l-6,1.7L76.3,8.6z M75.6,20.4l17.1-4.9L70.2,0L75.6,20.4z"/>
	<rect x="15.9" y="28.5" transform="matrix(0.9558 -0.294 0.294 0.9558 -7.5045 10.7412)" class="st4" width="32.1" height="3.7"/>
	
		<rect x="18.6" y="36.6" transform="matrix(0.9559 -0.2937 0.2937 0.9559 -9.5679 13.0717)" class="st4" width="40.2" height="3.7"/>
	<rect x="45" y="41.3" transform="matrix(0.961 -0.2765 0.2765 0.961 -9.8618 16.3291)" class="st4" width="15.8" height="3.7"/>
	
		<rect x="21.6" y="47.7" transform="matrix(0.9559 -0.2937 0.2937 0.9559 -13.1204 11.7271)" class="st4" width="21.7" height="3.7"/>
	<rect x="24.8" y="58.3" transform="matrix(0.956 -0.2935 0.2935 0.956 -16.1157 12.8383)" class="st4" width="19.8" height="3.7"/>
	<path class="st4" d="M78.3,58l2.4,1.8l2.1-2.2l2.9,0.7l1-2.9l3-0.6l-0.3-3l2.5-1.7l-1.5-2.6l1.5-2.6L89.6,43l0.4-3L87,39.3
		l-0.9-2.9l-3,0.6l-2-2.3l-2.5,1.7l-2.7-1.3l-1.6,2.6l-3,0l-0.4,3l-2.8,1.2l0.9,2.9L67,47l2,2.3l-1,2.9l2.7,1.3l0.3,3l3,0.1l1.5,2.6
		L78.3,58z M81.2,64.7l-3.4-2.5l-3.9,1.6l-2-3.7l-4.2-0.1l-0.4-4.2l-3.8-1.8l1.4-4L62.1,47l2.9-3.1l-1.2-4l3.9-1.7l0.5-4.2l4.2,0.1
		l2.2-3.6l3.8,1.8l3.4-2.4l2.8,3.2l4.1-0.8l1.2,4l4.1,0.9l-0.5,4.2l3.4,2.5l-2.2,3.6l2,3.7l-3.4,2.4l0.4,4.2l-4.1,0.8l-1.4,4
		L84,61.6L81.2,64.7z"/>
	<g>
		<path class="st4" d="M85.7,45.5l-1-1.6c-0.3-0.6-0.8-1.1-1.3-1.5l-1.4-1.2l2.3-2.8l1.4,1.2c0.8,0.7,1.5,1.5,2.1,2.4l1,1.6
			L85.7,45.5z"/>
		<path class="st4" d="M79.6,56.8c-1.6,0-3.1-0.4-4.5-1.1c-2.3-1.2-4-3.2-4.7-5.7c-0.8-2.5-0.5-5.1,0.7-7.4c1.2-2.3,3.2-4,5.7-4.7
			c2.5-0.8,5.1-0.5,7.4,0.7l1.6,0.9l-1.7,3.2l-1.6-0.9c-1.4-0.8-3.1-0.9-4.6-0.4c-1.5,0.5-2.8,1.5-3.6,3c-0.8,1.4-0.9,3.1-0.4,4.6
			c0.5,1.5,1.5,2.8,2.9,3.6c1.4,0.8,3.1,0.9,4.6,0.4c2.5-0.8,4.2-3.1,4.3-5.7l0-1.8l3.7,0.1l0,1.8c-0.1,4.2-2.8,7.9-6.9,9.1
			C81.5,56.6,80.6,56.8,79.6,56.8"/>
	</g>
	<polygon class="st4" points="70,74.8 70.8,61.3 74.4,61.5 74.1,66.5 76.4,64.5 79.5,67 79.9,63.6 83.5,64 82.3,74 76.5,69.3 	"/>
	<polygon class="st4" points="92.7,70.1 86.4,62.5 89.2,60.2 91.1,62.5 92.1,59 95.2,59 92.5,55 95.4,52.9 102.3,62.6 94.9,62.6 	
		"/>
</g>
</svg>
