<?xml version="1.0" encoding="utf-8"?>
<!-- Generator: Adobe Illustrator 27.4.0, SVG Export Plug-In . SVG Version: 6.00 Build 0)  -->
<svg version="1.1" id="Layer_1" xmlns="http://www.w3.org/2000/svg" xmlns:xlink="http://www.w3.org/1999/xlink" x="0px" y="0px"
	 viewBox="0 0 95.4 66.5" style="enable-background:new 0 0 95.4 66.5;" xml:space="preserve">
<style type="text/css">
	.st0{fill:url(#);}
	.st1{fill:#939598;}
	.st2{fill:#F39A2A;}
	.st3{fill:#3CADB9;}
	.st4{fill:#004C5D;}
</style>
<g>
	<g>
		<path class="st2" d="M76.9,7.5c-2.1,0-3.8,1.7-3.8,3.8c0,2.1,1.7,3.8,3.8,3.8c2.1,0,3.8-1.7,3.8-3.8C80.7,9.2,79,7.5,76.9,7.5
			 M76.9,18.8c-4.1,0-7.5-3.3-7.5-7.5c0-4.1,3.3-7.5,7.5-7.5c4.1,0,7.5,3.3,7.5,7.5C84.3,15.4,81,18.8,76.9,18.8"/>
	</g>
	<polygon class="st2" points="91.1,48.2 63.1,48 70.9,26 74.4,27.2 68.3,44.4 85.8,44.5 79.2,27.3 82.6,26 	"/>
	<g>
		<path class="st2" d="M91.8,39.7L85.6,26c-0.8-1.8-2.5-3.6-4.9-3.6h-7.3c-2.3,0-3.9,1.4-4.8,4.2l-0.1,0.2l-4.9,11.4l-3.4-1.4
			l4.9-11.3c1.4-4.2,4.4-6.6,8.3-6.6h7.3c3.5,0,6.6,2.2,8.2,5.8l6.2,13.7L91.8,39.7z"/>
		<path class="st2" d="M90.1,45.5c-1.4,0-2.9-0.5-4-1.5l2.4-2.7c0.8,0.7,2,0.7,2.6,0.3c0.6-0.4,0.7-1,0.5-1.9l3.5-1
			c0.7,2.5-0.1,4.8-2,6C92.2,45.2,91.2,45.5,90.1,45.5"/>
		<path class="st2" d="M64.1,45.6c-0.9,0-1.7-0.2-2.4-0.6c-2.2-1.1-3.2-3.5-2.5-6l3.5,1c-0.3,1.1,0.3,1.6,0.6,1.7
			C64,42.1,65,42,66,40.8l2.9,2.3C67.4,44.9,65.7,45.6,64.1,45.6"/>
		<path class="st2" d="M74,66.5L74,66.5c-2.5,0-5.3-1.7-5.3-4.1V44.9h3.7v17.4c0.2,0.2,0.8,0.6,1.6,0.6H74c0.8,0,1.1-0.4,1.1-0.5
			l0-17.5h3.7v17.5C78.8,64.7,76.6,66.5,74,66.5"/>
		<path class="st2" d="M80.5,66.5L80.5,66.5c-2.6,0-5.4-1.7-5.4-4.1V45.1h3.7v17.1c0.2,0.2,1,0.6,1.7,0.6h0.1c0.7,0,1.2-0.3,1.3-0.5
			V45.1h3.7v17.3C85.4,64.7,83.2,66.5,80.5,66.5"/>
		<path class="st2" d="M47.3,29.3c-1.2,0-2.1,0.9-2.1,2.1c0,1.2,0.9,2.1,2.1,2.1c1.2,0,2.1-0.9,2.1-2.1
			C49.4,30.2,48.4,29.3,47.3,29.3 M47.3,37.2c-3.2,0-5.8-2.6-5.8-5.8c0-3.2,2.6-5.8,5.8-5.8c3.2,0,5.8,2.6,5.8,5.8
			C53,34.6,50.4,37.2,47.3,37.2"/>
	</g>
	<polygon class="st2" points="56.9,56.3 38.5,56.2 40.7,46 44.3,46.8 43,52.6 52.5,52.6 51.4,46.6 55,46 	"/>
	<g>
		<path class="st2" d="M43.3,46.3l-11.6-7.8l2-3l7.8,5.2c0.9-1.4,2.6-2.9,6-2.9h0c3.4,0,5,1.7,5.9,3.4l7.4-3.6l1.6,3.3l-10.9,5.4
			l-0.7-1.9c-0.8-2-1.3-2.9-3.4-2.9h0c-2.6,0-2.9,1.2-3.3,2.4L43.3,46.3z"/>
		<path class="st2" d="M17.6,3.7c-2.3,0-4.1,1.9-4.1,4.1s1.9,4.1,4.1,4.1c2.3,0,4.1-1.9,4.1-4.1S19.9,3.7,17.6,3.7 M17.6,15.6
			c-4.3,0-7.8-3.5-7.8-7.8c0-4.3,3.5-7.8,7.8-7.8s7.8,3.5,7.8,7.8C25.4,12.1,21.9,15.6,17.6,15.6"/>
		<path class="st2" d="M13.1,47.7l-3.7,0v-1.8c0-1.6,0.1-16.2,1.4-20.2l0.6-1.7l3.5,1.1l-0.6,1.7c-1,3-1.2,14.8-1.2,19.1V47.7z"/>
		<path class="st2" d="M23,47.7v-1.8c0-4.3-0.2-16.1-1.2-19.1L21.3,25l3.5-1.1l0.6,1.7c1.3,4.1,1.3,18.6,1.4,20.2v1.8L23,47.7z"/>
		<path class="st2" d="M4.3,35.3l-3.4-1.4l4.4-11.1c1.4-4.4,4.6-6.9,8.7-6.9h7.7c3.7,0,7,2.3,8.6,6l5.3,11.8l-3.3,1.5L27,23.4
			c-0.8-1.8-2.7-3.8-5.3-3.8H14c-2.5,0-4.3,1.5-5.2,4.4l0,0.1L4.3,35.3z"/>
		<path class="st2" d="M30.9,41.6c-1.5,0-3-0.5-4.2-1.6l2.4-2.7c0.9,0.8,2.2,0.8,2.9,0.3c0.7-0.4,0.8-1.1,0.5-2.1l3.5-1
			c0.7,2.6-0.1,5-2.1,6.2C33.1,41.3,32,41.6,30.9,41.6"/>
		<path class="st2" d="M5.3,42c-0.9,0-1.8-0.2-2.5-0.6c-2.2-1.1-3.3-3.6-2.5-6.2l3.5,1c-0.4,1.3,0.4,1.8,0.7,1.9
			c0.7,0.4,1.9,0.3,2.9-1l2.9,2.3C8.8,41.3,6.9,42,5.3,42"/>
		<path class="st2" d="M14.6,66.1L14.6,66.1c-2.8,0-5.1-1.9-5.1-4.2V42.3h3.7v19.6c0.1,0.2,0.6,0.6,1.4,0.6h0.1
			c0.9,0,1.6-0.4,1.8-0.7V41.9H20v20C20,64.4,17.2,66.1,14.6,66.1"/>
	</g>
	<rect x="16.3" y="41.5" class="st2" width="3.7" height="4.1"/>
	<g>
		<path class="st2" d="M21.5,66.1L21.5,66.1c-2.9,0-5.2-1.9-5.2-4.2V42.3H20v19.5c0.1,0.2,0.6,0.6,1.5,0.6h0.1
			c0.8,0,1.4-0.4,1.5-0.6V42.7h3.7v19.1C26.7,64.2,24.4,66.1,21.5,66.1"/>
	</g>
	<rect x="42.4" y="54.8" class="st2" width="3.7" height="11.6"/>
	
		<rect x="44.7" y="58.7" transform="matrix(9.731954e-03 -1 1 9.731954e-03 -10.2883 110.574)" class="st2" width="11.9" height="3.7"/>
</g>
</svg>
