<?xml version="1.0" encoding="utf-8"?>
<!-- Generator: Adobe Illustrator 27.4.0, SVG Export Plug-In . SVG Version: 6.00 Build 0)  -->
<svg version="1.1" id="Layer_1" xmlns="http://www.w3.org/2000/svg" xmlns:xlink="http://www.w3.org/1999/xlink" x="0px" y="0px"
	 viewBox="0 0 103.4 85" style="enable-background:new 0 0 103.4 85;" xml:space="preserve">
<style type="text/css">
	.st0{fill:url(#);}
	.st1{fill:#939598;}
	.st2{fill:#F39A2A;}
	.st3{fill:#3CADB9;}
	.st4{fill:#004C5D;}
</style>
<g>
	<path class="st2" d="M34.6,19.9l33.6,18.7l0,25.9l7-4V34.6L41.3,16L34.6,19.9z M64.6,70.7l0-30L27.2,19.9l14.1-8.1l37.6,20.6v30.1
		L64.6,70.7z"/>
	
		<rect x="65.6" y="34.7" transform="matrix(0.8671 -0.4981 0.4981 0.8671 -8.6788 40.5691)" class="st2" width="12.3" height="3.7"/>
	<polygon class="st2" points="37.6,59.2 0.7,35.7 31.1,18.9 32.9,22.1 7.9,35.9 37.7,54.9 60.9,41.2 62.7,44.4 	"/>
	<polygon class="st2" points="78.7,34.9 76.9,31.8 95.9,20.5 65.4,4.2 44.3,15.8 42.5,12.6 65.4,0 103.4,20.4 	"/>
	
		<rect x="76.7" y="33.9" transform="matrix(0.8635 -0.5043 0.5043 0.8635 -5.8881 49.7787)" class="st2" width="24.6" height="3.7"/>
	<g>
		<path class="st2" d="M58.5,55.7l-1.9-3.1l1.6-0.9c0.5-0.3,0.9-0.5,1.3-0.8l1.6-0.9l1.8,3.2L61.3,54c-0.4,0.2-0.8,0.5-1.3,0.8
			L58.5,55.7z"/>
		<path class="st2" d="M55.8,57c-0.6,0-1.2-0.3-1.6-0.9c-0.5-0.9-0.2-2,0.7-2.5c0.6-0.4,1.5-0.9,2.3-1.4l0.2-0.1
			c0.9-0.5,2-0.2,2.5,0.6c0.5,0.9,0.2,2-0.6,2.5l-0.2,0.1c-0.8,0.5-1.7,1-2.3,1.4C56.5,57,56.1,57,55.8,57"/>
		<path class="st2" d="M51,59.8c-0.6,0-1.2-0.3-1.6-0.9c-0.5-0.9-0.2-2,0.7-2.5l0.3-0.2c0.9-0.5,2-0.2,2.5,0.7
			c0.5,0.9,0.2,2-0.7,2.5l-0.3,0.2C51.7,59.7,51.3,59.8,51,59.8"/>
		<path class="st2" d="M37.8,67.8l-37.6-23l8.3-3.2L9.8,45l-1.4,0.5l29.4,18c1-0.6,2.7-1.6,5.1-3l1.6-0.9l1.8,3.2l-1.6,0.9
			c-3.8,2.2-6,3.5-6,3.5L37.8,67.8z"/>
		<path class="st2" d="M44.4,63.6c-0.6,0-1.2-0.3-1.6-0.9c-0.5-0.9-0.2-2,0.7-2.5c0.6-0.3,1.2-0.7,1.9-1.1c0.9-0.5,2-0.2,2.5,0.7
			c0.5,0.9,0.2,2-0.7,2.5c-0.7,0.4-1.3,0.8-1.9,1.1C45.1,63.5,44.7,63.6,44.4,63.6"/>
	</g>
	<rect x="75" y="42.9" transform="matrix(0.8581 -0.5134 0.5134 0.8581 -10.3907 51.9403)" class="st2" width="27.6" height="3.7"/>
	
		<rect x="56.1" y="60.5" transform="matrix(0.8581 -0.5134 0.5134 0.8581 -23.5793 39.3503)" class="st2" width="6.6" height="3.7"/>
	<g>
		<path class="st2" d="M38.2,77.2L20.8,66.4c-0.9-0.5-1.1-1.7-0.6-2.5c0.5-0.9,1.7-1.1,2.5-0.6l15.4,9.6l18.6-11.1
			c0.9-0.5,2-0.2,2.5,0.6c0.5,0.9,0.2,2-0.6,2.5L38.2,77.2z"/>
		<path class="st2" d="M17.1,63.6c-0.3,0-0.7-0.1-1-0.3c-0.9-0.5-1.1-1.7-0.6-2.5c0.2-0.4,0.5-0.6,0.9-0.7c0.3-0.2,1-0.4,1.9,0.1
			c0.9,0.5,1.1,1.7,0.6,2.5c-0.2,0.4-0.5,0.6-0.9,0.7C17.7,63.5,17.4,63.6,17.1,63.6"/>
	</g>
	<polygon class="st2" points="10.4,59.9 0,53.5 8.9,50.6 10,54 8.6,54.5 12.3,56.8 	"/>
	<g>
		<path class="st2" d="M12.4,60.9c-0.3,0-0.7-0.1-1-0.3c-0.2-0.1-0.5-0.3-0.7-0.5c-0.2-0.1-0.4-0.3-0.5-0.3
			c-0.9-0.5-1.1-1.7-0.6-2.5c0.5-0.9,1.7-1.1,2.5-0.6c0.2,0.1,0.4,0.3,0.7,0.5c0.2,0.1,0.4,0.3,0.5,0.4c0.9,0.5,1.1,1.7,0.6,2.5
			C13.6,60.6,13,60.9,12.4,60.9"/>
	</g>
	
		<rect x="75.9" y="51.2" transform="matrix(0.8675 -0.4974 0.4974 0.8675 -14.5517 51.3659)" class="st2" width="26.5" height="3.7"/>
	<g>
		<path class="st2" d="M51.9,40.4C41.3,40.4,33,35,33,28.1c0-2,0.7-4,2.2-5.8l2.9,2.3c-0.9,1.1-1.3,2.3-1.3,3.5
			c0,4.7,7,8.6,15.2,8.6c2.6,0,5.1-0.4,7.4-1.1l1.1,3.5C57.8,40,54.8,40.4,51.9,40.4"/>
		<path class="st2" d="M67.1,27.5c-0.5-3.7-5.8-8.8-15.9-8l-0.3-3.6c11.5-0.9,19.1,5,19.9,11.2L67.1,27.5z"/>
	</g>
	<polygon class="st2" points="37,85 0.8,63.8 7.4,59.7 9.3,62.8 7.8,63.7 37,80.8 64.8,64.9 66.6,68 	"/>
</g>
</svg>
