<?xml version="1.0" encoding="utf-8"?>
<!-- Generator: Adobe Illustrator 27.4.0, SVG Export Plug-In . SVG Version: 6.00 Build 0)  -->
<svg version="1.1" id="Layer_1" xmlns="http://www.w3.org/2000/svg" xmlns:xlink="http://www.w3.org/1999/xlink" x="0px" y="0px"
	 viewBox="0 0 86 69.5" style="enable-background:new 0 0 86 69.5;" xml:space="preserve">
<style type="text/css">
	.st0{fill:url(#);}
	.st1{fill:#939598;}
	.st2{fill:#F39A2A;}
	.st3{fill:#3CADB9;}
	.st4{fill:#004C5D;}
</style>
<g>
	<g>
		<path class="st3" d="M3.9,10.7l0,55.1l78.4-0.1l0-55.1L3.9,10.7z M2.1,69.5c-0.5,0-0.9-0.2-1.3-0.5c-0.3-0.3-0.5-0.8-0.5-1.3
			l0-58.8c0-1,0.8-1.8,1.8-1.8L84.1,7h0c0.5,0,0.9,0.2,1.3,0.5c0.3,0.3,0.5,0.8,0.5,1.3l0,58.8c0,0.5-0.2,1-0.5,1.3
			c-0.3,0.3-0.8,0.5-1.3,0.5L2.1,69.5z"/>
		<path class="st3" d="M29.9,7.7l0-5.9c0-1,0.8-1.8,1.8-1.8l24.2,0c0.5,0,0.9,0.2,1.3,0.5c0.3,0.3,0.5,0.8,0.5,1.3l0,5.9h-3.7l0-4.1
			l-20.5,0l0,4.1L29.9,7.7z"/>
	</g>
	<rect x="18.4" y="7.9" class="st3" width="3.7" height="25"/>
	<rect x="27.1" y="7.9" class="st3" width="3.7" height="25"/>
	<rect x="57.7" y="8.3" class="st3" width="3.7" height="25"/>
	<rect x="66.5" y="8.3" class="st3" width="3.7" height="25"/>
	<rect x="32.7" y="31.9" class="st3" width="21.2" height="3.7"/>
	<g>
		<path class="st3" d="M13.2,44.3C5.9,44.3,0,38.5,0,31.4v0c0-0.4,0-0.8,0.1-1.3l0.2-1.8l3.6,0.4l-0.2,1.8c0,0.3,0,0.6,0,0.9v0
			c0,5.1,4.3,9.3,9.6,9.3h0l60.4,0c3.2,0,6.2-1.6,8-4.2l1-1.5l3,2.1l-1,1.5c-2.5,3.6-6.6,5.7-11,5.8L13.2,44.3L13.2,44.3z"/>
		<path class="st3" d="M15.7,53.5c-0.5,0-0.9-0.2-1.3-0.5c-0.3-0.3-0.5-0.8-0.5-1.3l0-6.1l3.7,0l0,4.3l11.7,0l0-4.1l3.7,0l0,5.9
			c0,0.5-0.2,0.9-0.5,1.3c-0.3,0.3-0.8,0.5-1.3,0.5L15.7,53.5z"/>
	</g>
	<rect x="17.5" y="50.2" class="st3" width="3.7" height="17.8"/>
	<rect x="25.7" y="50.2" class="st3" width="3.7" height="17.8"/>
	<g>
		<path class="st3" d="M54,53.5c-1,0-1.8-0.8-1.8-1.8l0-6.1l3.7,0l0,4.3l11.7,0v-4.1h3.7l0,5.9c0,1-0.8,1.8-1.8,1.8L54,53.5z"/>
	</g>
	<rect x="55.8" y="50.2" class="st3" width="3.7" height="17.8"/>
	<rect x="63.9" y="50.2" class="st3" width="3.7" height="17.8"/>
</g>
</svg>
