<?xml version="1.0" encoding="utf-8"?>
<!-- Generator: Adobe Illustrator 27.4.0, SVG Export Plug-In . SVG Version: 6.00 Build 0)  -->
<svg version="1.1" id="Layer_1" xmlns="http://www.w3.org/2000/svg" xmlns:xlink="http://www.w3.org/1999/xlink" x="0px" y="0px"
	 viewBox="0 0 395.3 424.7" style="enable-background:new 0 0 395.3 424.7;" xml:space="preserve">
<style type="text/css">
	.st0{fill:none;}
	.st1{fill:#004C5D;}
	.st2{fill:url(#);}
	.st3{fill:url(#SVGID_1_);}
	.st4{fill:#939598;}
	.st5{fill:#F39A2A;}
	.st6{fill:#3CADB9;}
</style>
<pattern  x="2401.7" y="-397.7" width="45" height="45" patternUnits="userSpaceOnUse" id="New_Pattern_8" viewBox="33 -45 45 45" style="overflow:visible;">
	<g>
		<rect x="33" y="-45" class="st0" width="45" height="45"/>
		
			<rect x="54" y="-6.7" transform="matrix(1 -1.152896e-03 1.152896e-03 1 5.236681e-03 8.471712e-02)" class="st1" width="39" height="4.4"/>
		
			<rect x="9" y="-6.7" transform="matrix(1 -1.152896e-03 1.152896e-03 1 5.206775e-03 3.283681e-02)" class="st1" width="39" height="4.4"/>
		
			<rect x="45" y="-15.7" transform="matrix(1 -1.152896e-03 1.152896e-03 1 1.560676e-02 7.433508e-02)" class="st1" width="39" height="4.4"/>
		
			<rect x="0" y="-15.7" transform="matrix(1 -1.152896e-03 1.152896e-03 1 1.557686e-02 2.245476e-02)" class="st1" width="39" height="4.4"/>
		
			<rect x="36" y="-24.7" transform="matrix(1 -1.152896e-03 1.152896e-03 1 2.597684e-02 6.395303e-02)" class="st1" width="39" height="4.4"/>
		
			<rect x="72" y="-33.7" transform="matrix(1 -1.152896e-03 1.152896e-03 1 3.637683e-02 0.1055)" class="st1" width="39" height="4.4"/>
		
			<rect x="27" y="-33.7" transform="matrix(1 -1.152896e-03 1.152896e-03 1 3.634693e-02 5.357099e-02)" class="st1" width="39" height="4.4"/>
		
			<rect x="63" y="-42.7" transform="matrix(1 -1.152896e-03 1.152896e-03 1 4.674691e-02 9.506926e-02)" class="st1" width="39" height="4.4"/>
		
			<rect x="18" y="-42.7" transform="matrix(1 -1.152896e-03 1.152896e-03 1 4.671701e-02 4.318895e-02)" class="st1" width="39" height="4.4"/>
	</g>
</pattern>
<pattern  id="SVGID_1_" xlink:href="#New_Pattern_8" patternTransform="matrix(1 0 0 1 180 0)">
</pattern>
<rect x="0.8" y="0.8" class="st3" width="395.3" height="424.7"/>
</svg>
